<?xml version="1.0" encoding="UTF-8" standalone="no"?>
<svg
   xmlns:dc="http://purl.org/dc/elements/1.1/"
   xmlns:cc="http://creativecommons.org/ns#"
   xmlns:rdf="http://www.w3.org/1999/02/22-rdf-syntax-ns#"
   xmlns:svg="http://www.w3.org/2000/svg"
   xmlns="http://www.w3.org/2000/svg"
   xmlns:sodipodi="http://sodipodi.sourceforge.net/DTD/sodipodi-0.dtd"
   xmlns:inkscape="http://www.inkscape.org/namespaces/inkscape"
   width="55.156528mm"
   height="101.2187mm"
   viewBox="0 0 55.156528 101.2187"
   version="1.1"
   id="svg8"
   inkscape:version="1.0.2-2 (e86c870879, 2021-01-15)"
   sodipodi:docname="catOrCategory.svg">
  <defs
     id="defs2" />
  <sodipodi:namedview
     id="base"
     pagecolor="#ffffff"
     bordercolor="#666666"
     borderopacity="1.0"
     inkscape:pageopacity="0.0"
     inkscape:pageshadow="2"
     inkscape:zoom="0.39313511"
     inkscape:cx="338.50924"
     inkscape:cy="391.5098"
     inkscape:document-units="mm"
     inkscape:current-layer="layer1"
     inkscape:document-rotation="0"
     showgrid="false"
     fit-margin-top="0"
     fit-margin-left="0"
     fit-margin-right="0"
     fit-margin-bottom="0"
     inkscape:window-width="1346"
     inkscape:window-height="1040"
     inkscape:window-x="234"
     inkscape:window-y="0"
     inkscape:window-maximized="0" />
  <metadata
     id="metadata5">
    <rdf:RDF>
      <cc:Work
         rdf:about="">
        <dc:format>image/svg+xml</dc:format>
        <dc:type
           rdf:resource="http://purl.org/dc/dcmitype/StillImage" />
        <dc:title></dc:title>
      </cc:Work>
    </rdf:RDF>
  </metadata>
  <g
     inkscape:label="Layer 1"
     inkscape:groupmode="layer"
     id="layer1"
     transform="translate(-32.640858,-35.82947)">
    <g
       id="g894"
       transform="matrix(0.26458333,0,0,0.26458333,28.561196,72.34293)">
      <g
         id="g837">
	<g
   id="g835">
		<path
   style="fill:#030104"
   d="m 207.187,2.821 c -2.4,-2 -6.6,-3.9 -10.7,-2.1 -7.8,5.3 27.4,27 9.6,99.6 -3.7,15 -12.8,7.2 -23.6,3.9 -24.6,-7.7 -50.9,-9.4 -76.4,-12.1 -9,-1 -18.2,-1.7 -26.9,-4.1 -9.2,-2.5 -9.6,-3 -7.3,-11.4 6.4,-8.1 3.8,-19.2 3.5,-23.8 4.8,-10.6 6.6,-19.8 2.8,-24.5 -10.3,-12.2 -12,19.4 -25.4,19.5 -6.1,-0.6 -10.1,-0.1 -11.6,-3.4 -2.7,-5.7 -6.9,-13.1 -12.3,-16.6 -8.3,-5.5 -10,9.7 -6.5,24.1 -1.1,8.8 -0.3,14.8 4.2,21.2 2.3,3.2 2.8,7.2 3.5,11 1.3,6.6 2.1,14.8 2.1,21.5 0,3.8 0.7,15.6 1.3,19.4 2.8,17.2 3.7,20.6 16.6,33.2 5.4,5.3 13.6,9.9 17,17 2.5,5.4 4.7,11.3 7,16.7 4.5,10.4 7.3,21 9.2,32.1 1.1,6 -13.2,7.3 -10.8,15.6 1.9,6.8 20.1,6.7 21.2,-1.1 0.7,-4.4 2.8,-12.4 3.8,-18.5 5.3,-22.9 -2.5,-31.8 3.6,-52.6 1.6,-7.5 30.9,7 34.9,9.7 8.1,5.5 16.8,9.9 25,15.2 12.7,8.2 3.9,15.4 -4.3,22.1 -4.4,3.6 -4.4,3.8 -10,2.5 -4.6,-0.9 -8.2,1.9 -9.2,5.2 -1.5,4.7 5.3,7.9 10,7.3 14.1,-1.5 33.6,-16.2 39.7,-28.9 4.1,4.8 2.4,9.3 0.1,15.4 -1,2.6 -2.1,5.1 -3,7.7 -2,5.9 -3.9,4.3 -8.7,5.4 -7.1,2.3 -3.9,12.7 3.9,11.5 2.7,-0.4 12.9,-1.6 14,-6.3 0.5,-2.1 2.6,-6.4 3.6,-8.5 2.2,-5.2 14.4,-32.4 9,-37.6 -2.8,-2.6 -5,-5.3 -7.1,-8.5 -3.3,-5.2 -1.8,-5.8 1.1,-10.2 3,-4.6 5.7,-10 8.3,-14.8 5.9,-11.4 1.5,-21.2 6.7,-36.4 16.1,-48.7 8.1,-102 -7.9,-115.4 z"
   id="path833" />

	</g>

</g>
      <g
         id="g839">
</g>
      <g
         id="g841">
</g>
      <g
         id="g843">
</g>
      <g
         id="g845">
</g>
      <g
         id="g847">
</g>
      <g
         id="g849">
</g>
      <g
         id="g851">
</g>
      <g
         id="g853">
</g>
      <g
         id="g855">
</g>
      <g
         id="g857">
</g>
      <g
         id="g859">
</g>
      <g
         id="g861">
</g>
      <g
         id="g863">
</g>
      <g
         id="g865">
</g>
      <g
         id="g867">
</g>
    </g>
    <text
       xml:space="preserve"
       style="font-size:50.8px;line-height:1.25;font-family:Arial;-inkscape-font-specification:Arial;fill:#f7df1e;fill-opacity:1;stroke-width:0.264583"
       x="31.64867"
       y="72.267555"
       id="text898"><tspan
         sodipodi:role="line"
         id="tspan896"
         x="31.64867"
         y="72.267555"
         style="font-style:normal;font-variant:normal;font-weight:normal;font-stretch:normal;font-size:50.8px;font-family:Bahnschrift;-inkscape-font-specification:Bahnschrift;fill:#f7df1e;fill-opacity:1;stroke-width:0.264583">?</tspan></text>
  </g>
</svg>
