<?xml version="1.0" encoding="UTF-8" standalone="no"?>
<svg
   xmlns:dc="http://purl.org/dc/elements/1.1/"
   xmlns:cc="http://creativecommons.org/ns#"
   xmlns:rdf="http://www.w3.org/1999/02/22-rdf-syntax-ns#"
   xmlns:svg="http://www.w3.org/2000/svg"
   xmlns="http://www.w3.org/2000/svg"
   xmlns:sodipodi="http://sodipodi.sourceforge.net/DTD/sodipodi-0.dtd"
   xmlns:inkscape="http://www.inkscape.org/namespaces/inkscape"
   width="182.5331mm"
   height="81.704025mm"
   viewBox="0 0 182.53309 81.704025"
   version="1.1"
   id="svg5293"
   inkscape:version="1.0.2-2 (e86c870879, 2021-01-15)"
   sodipodi:docname="methods.svg">
  <defs
     id="defs5287">
    <inkscape:path-effect
       effect="bspline"
       id="path-effect6172"
       is_visible="true"
       lpeversion="1"
       weight="33.333333"
       steps="2"
       helper_size="0"
       apply_no_weight="true"
       apply_with_weight="true"
       only_selected="false" />
    <inkscape:path-effect
       effect="bspline"
       id="path-effect6031"
       is_visible="true"
       lpeversion="1"
       weight="33.333333"
       steps="2"
       helper_size="0"
       apply_no_weight="true"
       apply_with_weight="true"
       only_selected="false" />
    <inkscape:path-effect
       effect="bspline"
       id="path-effect6008"
       is_visible="true"
       lpeversion="1"
       weight="33.333333"
       steps="2"
       helper_size="0"
       apply_no_weight="true"
       apply_with_weight="true"
       only_selected="false" />
  </defs>
  <sodipodi:namedview
     id="base"
     pagecolor="#ffffff"
     bordercolor="#666666"
     borderopacity="1.0"
     inkscape:pageopacity="0.0"
     inkscape:pageshadow="2"
     inkscape:zoom="0.96430891"
     inkscape:cx="580.33314"
     inkscape:cy="71.197107"
     inkscape:document-units="mm"
     inkscape:current-layer="layer1"
     inkscape:document-rotation="0"
     showgrid="false"
     fit-margin-top="0"
     fit-margin-left="0"
     fit-margin-right="0"
     fit-margin-bottom="0"
     inkscape:window-width="1920"
     inkscape:window-height="1017"
     inkscape:window-x="-8"
     inkscape:window-y="-8"
     inkscape:window-maximized="1" />
  <metadata
     id="metadata5290">
    <rdf:RDF>
      <cc:Work
         rdf:about="">
        <dc:format>image/svg+xml</dc:format>
        <dc:type
           rdf:resource="http://purl.org/dc/dcmitype/StillImage" />
        <dc:title></dc:title>
      </cc:Work>
    </rdf:RDF>
  </metadata>
  <g
     inkscape:label="Layer 1"
     inkscape:groupmode="layer"
     id="layer1"
     transform="translate(-56.646559,-124.53742)">
    <g
       transform="matrix(0.03527778,0,0,-0.03527778,56.293781,204.21737)"
       fill="#000000"
       stroke="none"
       id="g5866">
      <path
         d="m 1777,1825 c -3,-11 -8,-38 -12,-60 -3,-22 -11,-58 -17,-79 l -10,-40 -20,60 c -11,32 -24,64 -30,69 -12,11 -9,-6 16,-108 13,-57 13,-58 -7,-55 -15,2 -23,13 -27,34 -14,66 -61,116 -143,152 -26,11 -28,10 -23,-5 37,-120 40,-198 10,-210 -7,-3 -27,5 -43,16 -42,30 -51,26 -51,-19 0,-22 -4,-40 -8,-40 -18,0 -222,-174 -222,-189 0,-5 -13,-11 -29,-14 -22,-5 -36,-19 -57,-56 -16,-27 -38,-54 -49,-59 -44,-20 -84,-64 -91,-97 -3,-19 -13,-40 -20,-46 -11,-9 -13,-24 -8,-56 l 6,-43 h -32 c -37,0 -62,-12 -113,-56 -22,-18 -45,-30 -52,-28 -7,3 -29,-2 -49,-10 -28,-12 -42,-26 -58,-63 -11,-26 -25,-50 -30,-52 -5,-2 -36,-25 -68,-51 -37,-31 -71,-51 -96,-56 -69,-12 -90,-29 -120,-99 -18,-42 -34,-65 -45,-65 -40,0 -70,-75 -51,-128 9,-27 7,-33 -29,-68 -21,-21 -39,-46 -39,-55 0,-10 -19,-28 -44,-43 C 71,180 10,101 10,68 10,52 19,50 78,50 c 105,1 143,13 195,66 26,26 47,50 47,53 0,4 13,17 30,29 20,16 43,22 78,22 26,0 52,4 58,9 5,5 27,11 48,13 35,3 43,8 65,46 18,29 42,52 76,70 71,38 67,57 -12,57 -33,0 -59,3 -56,7 7,12 123,10 123,-2 0,-13 96,62 121,94 l 18,23 -46,7 c -25,3 -65,6 -90,6 -40,0 -43,-2 -38,-23 12,-48 -132,-91 -188,-55 -20,14 -26,28 -32,77 -4,33 -4,65 0,70 3,6 2,11 -3,11 -14,0 -22,-24 -16,-47 3,-11 1,-35 -5,-54 -10,-34 -10,-34 -8,14 3,57 -8,61 -24,8 -14,-46 -5,-124 16,-141 25,-20 17,-28 -32,-36 -64,-9 -83,14 -83,100 0,107 49,175 125,176 22,0 49,15 98,56 61,51 67,54 61,30 -12,-48 2,-27 30,44 17,42 38,77 52,86 41,27 44,11 8,-41 -38,-55 -67,-105 -60,-105 2,0 23,29 46,65 53,82 177,185 221,185 36,0 49,-25 23,-45 -11,-8 -14,-15 -8,-15 5,0 15,5 22,12 9,9 16,8 29,-5 13,-13 14,-17 4,-17 -16,0 -101,-52 -101,-61 0,-4 27,8 59,25 l 60,31 25,-24 c 14,-14 26,-30 26,-38 0,-7 6,-13 13,-13 8,0 22,-9 32,-19 17,-19 16,-21 -16,-40 -19,-12 -39,-21 -44,-21 -12,0 -49,-59 -42,-66 8,-8 147,58 147,70 0,7 -5,17 -12,24 -9,9 -9,12 0,12 15,0 32,-33 24,-47 -4,-5 -47,-29 -97,-52 -97,-45 -105,-52 -105,-94 0,-16 -6,-43 -14,-60 -20,-44 -26,-185 -8,-192 33,-12 63,-5 72,19 5,13 13,27 19,30 6,4 8,13 5,20 -6,15 16,40 48,57 15,8 23,8 32,-2 8,-9 7,-11 -6,-6 -12,4 -23,-4 -38,-27 -21,-35 -19,-60 6,-70 8,-3 14,-14 14,-23 0,-29 29,-63 54,-63 13,0 37,14 54,30 18,17 36,30 42,30 17,0 11,-9 -17,-24 -28,-15 -28,-16 -5,-22 17,-5 22,-14 22,-38 0,-54 -10,-76 -36,-76 -12,0 -35,-5 -50,-10 -28,-11 -56,1 -35,14 6,4 10,26 9,49 -1,41 -1,41 -5,7 -3,-19 -8,-39 -13,-45 -7,-9 5,-133 13,-142 13,-12 138,-24 222,-21 123,4 127,14 35,76 -36,24 -68,49 -71,55 -4,7 -1,38 5,70 10,54 12,58 34,52 18,-4 30,2 53,26 30,32 36,58 19,88 -7,13 -4,29 10,57 32,61 24,121 -22,164 -32,30 -104,60 -144,60 -32,0 -34,2 -28,28 9,36 7,35 40,17 39,-20 61,-19 76,5 22,34 44,24 72,-33 33,-67 46,-79 125,-111 71,-28 156,-34 225,-15 29,8 45,8 62,-2 29,-15 51,0 62,45 7,27 12,31 39,28 17,-2 34,1 37,6 3,5 16,8 28,5 33,-5 49,9 55,51 5,36 4,36 -23,26 -24,-9 -25,-9 -14,5 7,8 23,15 35,15 13,0 33,8 45,18 22,18 24,18 58,1 38,-20 58,-50 68,-105 7,-39 27,-53 54,-36 10,6 22,7 31,1 8,-5 24,-9 36,-9 23,0 67,-17 144,-56 55,-28 120,-40 145,-26 11,6 44,53 74,106 35,61 61,96 72,96 15,0 39,-24 63,-65 15,-25 106,-36 137,-17 13,7 15,11 6,8 -27,-8 -21,3 7,14 17,7 23,15 19,27 -5,14 -4,15 4,4 8,-12 13,-12 25,-2 29,23 26,-6 -3,-37 -18,-20 -38,-32 -54,-32 -19,0 -26,-5 -26,-19 0,-14 -10,-20 -46,-25 -25,-3 -57,-3 -70,0 -43,11 -69,-4 -109,-61 -66,-97 -60,-184 16,-199 16,-3 29,-11 29,-17 0,-6 -7,-9 -15,-5 -13,5 -13,1 -2,-27 8,-19 23,-34 37,-37 13,-3 24,-13 26,-21 1,-9 5,-26 8,-37 6,-17 -3,-27 -47,-56 -30,-20 -59,-36 -64,-36 -5,0 -18,-9 -28,-20 -33,-36 -8,-44 133,-43 70,0 136,3 147,6 11,3 30,6 43,6 22,1 23,4 21,59 -2,31 2,66 8,76 6,11 8,37 6,58 -6,38 0,44 31,32 10,-4 16,-18 16,-35 0,-22 7,-32 30,-44 l 30,-16 v 76 c 0,43 4,75 10,75 6,0 10,-9 10,-20 0,-23 4,-24 31,-10 13,7 19,7 19,0 0,-10 52,-14 62,-5 3,3 -1,36 -8,73 -19,96 -18,102 11,102 18,0 35,-14 64,-54 51,-69 75,-86 126,-88 37,-1 37,-2 8,-5 -38,-5 -38,-5 -18,-43 23,-45 62,-70 109,-70 35,0 48,-6 77,-36 18,-19 50,-42 69,-51 19,-9 49,-28 65,-43 42,-38 109,-61 166,-59 41,2 49,6 49,22 0,35 -70,154 -111,186 -21,18 -39,38 -39,44 0,7 -13,28 -29,47 -23,28 -27,41 -24,75 4,32 1,44 -17,60 -17,16 -23,17 -30,5 -6,-10 -9,-5 -12,16 -4,40 -30,37 -40,-5 -5,-18 -11,-31 -14,-28 -3,3 -1,22 5,43 15,56 0,110 -41,145 -18,15 -44,28 -57,29 -21,0 -23,-3 -17,-30 3,-19 2,-29 -4,-25 -6,3 -10,16 -10,28 0,26 -35,105 -57,129 -8,9 -29,20 -47,24 -17,3 -40,14 -50,23 -18,15 -19,15 -11,-4 4,-11 9,-33 11,-50 2,-16 -6,-1 -17,35 -23,72 -70,130 -105,130 -39,0 -64,45 -64,112 0,57 -2,62 -37,94 l -37,34 -17,-38 c -22,-46 -23,-41 -5,20 10,33 12,57 6,80 -12,40 -98,130 -148,154 -20,9 -62,40 -93,68 -65,60 -207.3934,141.5425 -242.3934,151.5425 -292.5617,12.4673 -182.8901,0.8012 -83.8126,-8.7399 37.7962,-3.6398 84.8499,-1.363 91.5622,-5.5652 23.6468,-14.8041 88.3436,-41.8545 102.6438,-50.2374 56,-33 171,-136 204,-182 l 20,-28 -33,-9 c -30,-8 -37,-6 -68,23 -33,31 -89,65 -106,65 -5,0 12,-13 37,-28 24,-16 53,-39 63,-50 l 19,-22 h -50 c -35,0 -55,5 -64,17 -12,15 -12,16 1,8 11,-6 12,-5 4,4 -6,7 -30,15 -52,18 -27,4 -55,17 -81,39 -28,25 -49,34 -74,34 -19,0 -49,3 -67,7 l -33,6 6,89 c 6,89 -1,106 -30,77 -7,-7 -20,-8 -34,-3 -13,4 -28,7 -33,6 -4,-2 -14,2 -22,9 -8,6 -25,8 -38,5 -14,-3 -28,-2 -31,4 -10,16 -45,12 -45,-5 0,-8 -4,-15 -9,-15 -5,0 -12,-18 -16,-40 -6,-36 -10,-40 -36,-40 -16,0 -41,-7 -54,-16 -14,-9 -25,-12 -25,-6 0,5 -9,12 -20,15 -11,3 -20,9 -19,14 4,23 -2,70 -11,83 -9,13 -14,11 -33,-12 -24,-30 -43,-37 -34,-14 7,16 -23,46 -45,46 -9,0 -21,-7 -28,-15 -18,-21 -33,-19 -27,5 3,11 -2,49 -10,84 -11,49 -24,76 -52,108 -34,37 -39,40 -44,23 z m 609,-310 c -1,-41 -5,-75 -9,-75 -5,0 -5,-5 -1,-11 3,-6 16,-8 27,-5 12,3 27,0 34,-6 7,-6 13,-8 13,-4 0,3 12,1 28,-5 15,-6 42,-11 60,-10 29,0 32,-2 33,-32 0,-29 1,-30 9,-9 12,27 31,28 48,2 7,-12 17,-18 22,-15 5,3 12,0 16,-6 5,-8 3,-9 -7,-4 -8,5 -1,-4 15,-19 l 28,-27 -23,-25 c -12,-13 -20,-27 -16,-30 3,-3 11,3 18,14 13,20 13,20 42,-1 16,-12 46,-39 67,-61 37,-38 37,-39 33,-105 -6,-74 -17,-98 -67,-136 -33,-25 -41,-27 -158,-27 -92,-1 -111,-3 -78,-9 25,-4 62,-8 83,-8 24,-1 37,-6 37,-14 0,-58 -166,-76 -187,-21 -3,9 -1,31 5,48 8,19 8,32 3,34 -10,3 -63,39 -110,74 -17,12 -23,26 -23,60 -1,23 2,53 6,66 5,16 3,22 -8,22 -18,0 -56,47 -56,69 1,10 6,6 16,-11 8,-15 23,-32 34,-38 17,-9 22,-7 30,16 l 11,27 29,-28 c 15,-15 39,-46 51,-70 l 23,-43 -28,-32 c -15,-19 -26,-42 -24,-54 3,-18 11,-21 61,-24 57,-3 58,-3 72,32 19,45 19,57 0,32 -8,-11 -15,-28 -15,-38 0,-14 -8,-18 -34,-18 -43,0 -52,14 -32,44 11,18 24,24 48,23 28,-2 34,2 36,22 3,19 0,22 -13,17 -9,-3 -26,-6 -36,-6 -11,0 -18,-4 -15,-9 3,-4 -6,-19 -19,-31 -14,-13 -25,-32 -25,-42 0,-10 -4,-18 -10,-18 -23,0 4,67 29,75 14,4 16,15 10,67 -3,35 -5,64 -4,66 2,2 13,-13 25,-33 25,-41 35,-39 44,10 8,40 17,44 31,13 6,-13 20,-24 33,-26 18,-3 22,1 22,26 0,16 7,35 15,42 26,22 13,53 -35,86 -25,17 -46,37 -48,45 -2,8 -8,19 -13,24 -7,7 -8,3 -3,-10 l 7,-20 -23,20 c -17,15 -14,8 10,-27 19,-26 31,-50 29,-53 -3,-2 -31,20 -62,50 -31,30 -62,55 -68,55 -7,0 -5,-8 6,-20 10,-11 20,-18 23,-15 7,7 42,-25 42,-38 0,-6 -10,-2 -22,9 -14,13 -10,4 10,-25 43,-59 40,-73 -5,-30 -46,43 -102,83 -109,77 -2,-3 13,-17 35,-31 57,-38 121,-107 121,-131 0,-16 -10,-9 -46,32 -45,52 -118,102 -145,102 -8,-1 1,-7 18,-15 46,-20 108,-71 138,-114 37,-54 31,-70 -8,-20 -18,24 -48,52 -67,63 l -35,19 26,-29 c 32,-35 49,-67 49,-89 0,-10 -14,4 -32,31 -43,62 -77,86 -124,88 -47,1 -56,-23 -25,-65 27,-36 26,-42 -1,-33 -36,10 -57,34 -70,78 -14,51 -28,68 -28,36 -1,-24 -2,-24 -14,5 -17,39 0,100 42,147 13,16 17,16 35,3 25,-17 80,-20 108,-5 15,9 19,22 19,63 0,45 8,97 14,97 1,0 2,-34 2,-75 z m -493,45 c 19,-22 23,-50 7,-50 -5,0 -1,-9 10,-20 26,-26 28,-25 23,8 l -5,27 21,-25 c 26,-32 26,-45 0,-71 -14,-14 -30,-19 -52,-17 -38,4 -55,32 -58,96 l -3,42 -193,-1 c -107,-1 -196,1 -200,5 -3,3 84,6 195,6 123,0 203,4 207,10 10,16 29,12 48,-10 z m 303,-126 c -22,-21 -42,-62 -50,-101 -6,-24 -11,-30 -23,-26 -11,4 -14,2 -9,-5 4,-7 2,-12 -3,-12 -6,0 -11,-9 -11,-21 0,-12 -4,-17 -11,-13 -22,13 2,-41 30,-67 l 27,-25 -18,-40 c -29,-64 -23,-101 27,-179 54,-85 140,-155 190,-155 27,0 37,7 59,40 28,43 32,55 15,44 -17,-10 -111,60 -153,116 -39,51 -54,64 -37,33 21,-39 96,-115 139,-140 25,-15 40,-29 34,-31 -6,-2 -36,13 -67,33 -52,35 -76,58 -118,115 l -19,25 16,-27 c 21,-35 20,-44 -1,-27 -24,20 20,-43 60,-84 18,-18 48,-45 67,-60 l 35,-27 h -29 c -45,0 -102,45 -131,103 -14,28 -25,59 -25,68 0,10 -4,20 -9,23 -8,6 -2,-33 13,-79 7,-19 6,-19 -6,-1 -73,106 -81,139 -48,209 12,26 26,44 32,41 5,-3 5,-11 0,-17 -15,-20 -22,-47 -12,-47 6,0 10,8 10,19 0,10 8,25 17,32 11,10 14,10 9,2 -4,-7 -3,-13 3,-13 5,0 13,5 16,10 10,16 65,12 65,-5 0,-8 5,-15 10,-15 5,0 9,5 7,12 -1,6 7,13 18,15 l 20,3 -20,-9 c -11,-5 -15,-10 -9,-10 14,-1 14,-34 0,-43 -21,-14 -31,-7 -12,7 17,13 18,15 3,15 -9,0 -17,-3 -18,-7 0,-5 -2,-18 -3,-31 -4,-31 63,-105 126,-141 54,-31 50,-53 -4,-25 -53,27 -97,63 -129,107 -16,22 -29,35 -29,29 0,-20 103,-123 143,-144 22,-11 55,-35 72,-54 27,-29 39,-34 76,-34 43,0 44,-1 43,-33 0,-17 -4,-47 -9,-65 -7,-28 -11,-33 -29,-27 -12,4 -56,16 -99,26 -42,11 -94,31 -114,44 -19,14 -43,25 -52,26 -45,1 -119,11 -147,18 -17,5 -48,5 -70,0 l -39,-8 43,3 c 66,6 53,-36 -16,-50 -31,-6 -32,-5 -32,25 0,27 -5,34 -33,46 -27,11 -38,25 -56,71 -12,31 -19,59 -16,62 6,6 74,-44 97,-72 10,-12 18,-16 18,-9 0,21 -51,72 -86,85 -19,6 -33,15 -31,18 35,60 51,115 56,193 l 6,89 40,27 c 22,15 50,42 62,60 25,37 32,68 8,36 -23,-30 -88,-95 -92,-91 -2,2 12,27 32,56 19,29 38,62 41,75 5,20 12,22 81,24 70,2 74,1 59,-15 z m -358,-51 c -3,-13 -12,-17 -33,-15 -41,4 -178,-9 -171,-16 3,-3 -12,-13 -34,-23 -45,-20 -46,-25 -25,-65 8,-16 15,-23 15,-16 0,7 -4,22 -10,32 -7,13 -6,21 4,29 20,16 73,25 80,12 10,-15 -22,-71 -39,-71 -20,0 -19,-20 3,-36 21,-16 40,-18 25,-3 -14,14 12,69 33,69 26,0 70,-28 88,-54 20,-31 17,-32 -36,-6 -23,11 -43,18 -45,16 -7,-6 27,-28 64,-41 21,-7 39,-20 41,-29 3,-13 -6,-16 -40,-16 l -43,-1 48,-43 49,-44 -23,-16 c -13,-9 -36,-16 -52,-16 -25,0 -28,-3 -24,-21 5,-18 2,-20 -19,-16 -24,4 -33,-6 -14,-18 39,-24 -62,-33 -161,-15 -46,8 -61,17 -97,56 -24,26 -46,60 -49,76 -3,15 -10,28 -15,28 -6,0 -8,7 -5,15 4,8 2,17 -3,20 -6,4 -10,11 -10,16 0,6 5,7 11,3 7,-4 10,2 8,17 -4,29 17,69 35,69 7,0 37,18 66,40 29,22 64,40 78,40 13,0 36,6 50,14 42,22 185,40 211,27 17,-10 21,-9 21,4 0,8 5,15 11,15 6,0 9,-8 7,-17 z m -610,-163 c 10,-5 2,-13 -25,-26 -35,-17 -36,-19 -13,-21 14,-2 40,-6 58,-9 l 33,-5 -39,-44 c -41,-46 -77,-141 -70,-185 3,-25 4,-25 98,-22 90,3 94,2 78,-14 -13,-13 -40,-18 -123,-22 -106,-5 -107,-5 -87,-24 17,-17 24,-18 58,-9 22,6 53,10 69,10 27,-1 27,-2 -10,-11 -22,-5 -50,-11 -62,-14 -32,-6 -28,-25 9,-51 l 31,-22 50,25 c 27,14 51,24 53,21 9,-8 -97,-58 -114,-53 -25,8 -73,56 -67,66 3,5 -6,17 -20,26 -14,9 -25,22 -25,29 0,7 -10,19 -22,27 -23,15 -23,16 -5,54 l 17,39 -21,-27 c -22,-30 -27,-32 -47,-19 -11,6 -6,20 24,62 25,36 30,47 15,34 -13,-11 -29,-32 -37,-47 -18,-34 -25,-35 -58,-5 -27,23 -47,87 -28,87 6,0 13,-8 15,-17 3,-10 5,-1 6,20 2,55 24,99 62,121 l 33,19 -23,-36 c -12,-21 -20,-37 -18,-37 3,0 19,22 36,50 l 31,50 62,-6 c 35,-4 69,-10 76,-14 z M 2850,984 c 0,-19 -5,-24 -27,-25 -25,0 -26,-1 -8,-9 11,-4 24,-4 29,1 5,4 21,0 36,-11 21,-15 26,-26 23,-47 -3,-16 -1,-23 4,-17 17,24 51,25 71,4 29,-32 17,-56 -34,-70 -50,-14 -106,-2 -150,33 -30,24 -30,42 1,72 13,14 20,25 15,25 -5,0 -18,-12 -30,-27 -15,-19 -24,-23 -32,-15 -8,8 1,23 36,56 25,25 46,50 46,56 0,6 5,8 10,5 6,-3 10,-17 10,-31 z M 1984,814 c 24,-9 20,-66 -6,-94 -16,-17 -23,-20 -26,-10 -3,8 0,16 7,18 14,5 14,29 -1,38 -7,4 -8,3 -4,-5 10,-16 -12,-41 -38,-42 -19,-1 -18,-2 4,-8 19,-5 25,-13 25,-36 0,-39 -34,-46 -66,-14 -29,29 -20,81 23,126 31,32 51,39 82,27 z m 238,-33 c 53,-6 84,-15 112,-35 21,-14 48,-26 58,-26 15,0 18,-4 13,-17 -4,-10 -9,-35 -12,-56 -8,-55 -28,-40 -28,21 1,61 -6,59 -16,-6 -8,-46 -8,-46 -5,11 2,33 -1,52 -5,45 -5,-7 -9,-33 -9,-57 0,-35 -3,-42 -16,-37 -9,3 -20,6 -25,6 -5,0 -9,11 -9,25 0,18 4,23 16,18 9,-3 4,6 -10,21 -15,14 -31,26 -37,26 -5,0 -12,6 -15,14 -3,7 -24,17 -46,20 -47,8 -78,22 -78,37 0,6 9,8 19,4 11,-3 52,-9 93,-14 z m 463,-51 h 44 l -41,-72 c -22,-40 -52,-85 -66,-100 -28,-30 -49,-31 -118,-2 -73,30 -86,56 -63,122 l 10,31 41,-15 c 50,-17 65,-30 90,-69 10,-16 18,-24 18,-17 0,8 -9,27 -20,42 -19,27 -20,32 -6,64 14,33 17,35 41,26 15,-6 46,-10 70,-10 z m 465,-95 c 0,-10 13,-67 29,-125 16,-58 33,-125 39,-150 9,-44 10,-44 11,-10 1,39 -5,66 -43,194 -14,49 -24,91 -21,94 10,11 45,-88 64,-183 33,-169 33,-165 13,-165 -10,0 -23,5 -30,12 -8,8 -15,8 -26,-1 -12,-10 -15,-6 -22,21 -4,18 -7,62 -6,98 1,100 -16,190 -44,233 -31,47 -21,73 13,31 12,-16 23,-38 23,-49 z m -77,-41 c 4,-43 6,-106 3,-138 -3,-38 -1,-54 5,-45 5,8 9,30 10,49 1,33 2,32 14,-16 7,-28 15,-97 19,-153 8,-101 7,-102 -13,-92 -12,7 -21,23 -23,44 -3,27 -7,33 -32,35 l -28,4 6,156 c 4,86 7,176 8,200 1,72 22,42 31,-44 z m -1814,19 c 50,6 47,8 99,-81 12,-22 12,-22 -13,-16 -19,5 -48,-3 -103,-29 -106,-48 -129,-53 -137,-26 -13,40 5,111 36,141 25,25 31,27 50,17 13,-7 41,-9 68,-6 z M 3812,291 c 25,-36 24,-60 0,-38 -25,23 -28,22 -57,-20 -31,-46 -31,-60 -3,-69 20,-6 19,-8 -15,-21 -33,-14 -40,-14 -62,1 -39,25 -60,63 -45,81 9,11 16,12 30,3 9,-6 24,-8 33,-5 21,8 51,55 52,82 1,11 5,26 9,33 8,14 29,-3 58,-47 z M 314,281 c 26,-45 11,-76 -45,-91 -39,-11 -43,-10 -70,16 -16,15 -29,34 -29,41 0,7 17,28 37,47 45,41 78,37 107,-13 z m 2706,-46 c 0,-49 -3,-56 -27,-70 -23,-13 -24,-15 -5,-10 31,9 27,-2 -8,-20 -16,-8 -36,-28 -45,-45 -12,-23 -24,-30 -60,-36 -38,-5 -48,-3 -60,12 -17,23 -14,27 30,48 34,17 42,35 29,70 -3,9 -17,16 -30,16 -28,0 -32,15 -7,24 9,4 20,1 25,-6 5,-8 6,-3 3,13 -9,37 11,50 60,39 30,-7 45,-6 60,5 32,22 35,18 35,-40 z"
         id="path5858"
         sodipodi:nodetypes="cccccccccccccsssccsccccsccccsccssccscsccscsccccscscccsccccsccccccsccscccscscssssscccssccsssssccsccccccccccsscsscsscccccccccccccccscccccccccsccccscccccscccsccccccccssccccsccccccsccscccccsccssscsccsccccscsccscsccccccscccccsccccccssccccccccsscccccscccscccccsccsscccccsscscsscsccsccccccsccsscccccsccccccccccccccsccccccscccccccccscccssccccsccsscccccccsccsscccccsscsscccccsccccccccsccccccccccsscssscccsccccsscsccccsscccccscccccsccccccccsssccccccssccscsscccccccsccccssccsccsccccccccsccscscccccccsccccccsccscscscssccccccccccsccccscsccsccsssccsscccccccccscccccccccccssscccccccccscccccsccccsccccccccccscscscsccccccccssccccsccccccscssccsccsccsccscccccscccssscccccsscccccsccccsccccccccccccccccccccccccccsccccsccsccccccccscccccs" />
      <path
         d="m 2652,1188 c -7,-7 -12,-27 -12,-46 0,-19 -10,-54 -22,-78 l -22,-44 28,-29 c 34,-35 89,-54 111,-37 9,7 19,35 24,69 4,31 16,65 25,76 20,21 15,53 -12,84 -18,20 -101,24 -120,5 z"
         id="path5860" />
      <path
         d="m 1485,1257 c -42,-14 -83,-44 -90,-66 -3,-11 3,-36 15,-58 11,-21 20,-48 20,-60 0,-35 26,-53 80,-53 65,0 100,17 107,52 6,32 23,28 23,-7 0,-22 17,-35 46,-35 8,0 14,5 14,10 0,6 -12,10 -26,10 -15,0 -23,4 -19,11 8,12 -24,51 -35,44 -17,-10 -54,48 -60,92 -6,57 -30,76 -75,60 z"
         id="path5862" />
      <path
         d="m 973,751 c -48,-43 -63,-75 -63,-130 0,-20 -6,-46 -14,-56 -11,-16 -12,-9 -4,46 4,35 11,72 14,81 4,14 -2,17 -34,16 -21,0 -48,5 -60,11 -30,16 -33,14 -22,-15 21,-55 16,-62 -70,-80 -82,-18 -105,-34 -47,-34 35,0 75,-18 47,-21 -8,-1 19,-5 61,-9 44,-4 87,-14 100,-24 35,-24 39,-21 39,37 0,43 5,58 23,75 13,12 27,19 32,15 4,-5 5,-2 1,5 -4,7 6,36 22,67 17,30 27,55 24,55 -4,-1 -26,-18 -49,-39 z"
         id="path5864" />
      <g
         transform="matrix(0.15009465,0,0,0.15009465,4240.1641,-57.375247)"
         fill="#000000"
         stroke="none"
         id="g6100">
        <path
           d="m 4085,15396 c -28,-19 -110,-73 -183,-121 -271,-175 -579,-411 -735,-564 -123,-119 -237,-266 -325,-418 -75,-129 -173,-305 -220,-398 l -46,-90 -8,90 c -5,50 -6,201 -2,338 5,203 4,247 -8,247 -14,0 -56,-78 -242,-445 -170,-335 -307,-635 -373,-815 -59,-161 -74,-280 -80,-645 -6,-370 9,-608 62,-950 25,-163 40,-186 260,-415 137,-143 166,-187 259,-399 l 37,-84 -75,-76 c -41,-42 -87,-91 -101,-108 l -27,-33 h -146 -147 l -80,-95 c -97,-116 -224,-302 -225,-331 0,-11 7,-45 16,-75 12,-38 16,-90 15,-175 -1,-113 -3,-127 -31,-189 -17,-38 -34,-96 -39,-130 -9,-61 -13,-68 -115,-190 -183,-221 -280,-378 -336,-545 -18,-52 -61,-153 -96,-224 -35,-71 -64,-137 -64,-147 0,-28 63,-196 103,-274 51,-100 119,-179 227,-264 52,-40 98,-81 102,-91 3,-10 36,-54 72,-98 40,-50 61,-84 54,-88 -7,-4 -9,-32 -6,-75 l 5,-68 -51,-73 c -68,-95 -150,-236 -218,-373 -53,-105 -80,-175 -233,-605 C 865,5786 865,5786 813,5737 733,5662 633,5581 460,5451 242,5286 0,5073 0,5045 c 0,-7 24,-31 52,-53 29,-23 71,-59 93,-82 l 39,-40 -56,-53 -56,-52 13,-145 c 13,-145 26,-195 66,-251 30,-42 102,-75 179,-82 70,-5 142,-33 189,-73 l 30,-25 -46,-107 c -25,-59 -46,-116 -47,-126 -1,-15 12,-23 63,-37 93,-27 94,-28 82,-140 -6,-52 -8,-105 -4,-119 14,-59 73,-98 176,-116 174,-32 270,-44 296,-38 14,4 58,31 97,61 67,51 75,54 120,51 l 49,-3 -2,-85 c -1,-47 -6,-155 -12,-240 l -10,-155 82,-80 c 85,-83 244,-210 363,-291 l 69,-46 77,6 c 75,6 78,6 83,-16 3,-13 7,-103 9,-200 3,-149 1,-181 -12,-200 -9,-12 -17,-45 -19,-73 -4,-82 -14,-138 -28,-170 -7,-16 -15,-57 -18,-90 -2,-33 -16,-91 -31,-129 -14,-37 -26,-77 -26,-87 0,-11 -32,-59 -70,-106 -39,-48 -122,-164 -185,-258 -96,-144 -126,-181 -195,-240 -161,-138 -368,-373 -404,-459 -26,-62 -21,-112 14,-148 l 31,-30 167,5 c 121,3 193,10 262,26 246,57 331,90 492,195 101,65 193,112 335,170 133,54 364,171 427,217 47,33 47,34 42,79 -3,25 -8,88 -11,140 -7,104 -30,256 -47,308 -5,19 -11,84 -13,145 -2,100 1,135 22,252 4,16 14,41 24,55 12,17 19,53 23,110 3,47 10,100 15,117 5,17 15,82 21,145 8,76 19,127 34,155 19,39 24,42 51,37 24,-4 52,6 130,49 131,70 407,241 429,266 10,11 28,45 40,76 l 23,56 22,-83 c 12,-46 24,-88 26,-95 10,-29 394,-262 562,-340 79,-36 116,-40 170,-18 52,22 57,20 83,-36 14,-28 34,-58 45,-67 12,-10 26,-35 32,-57 17,-59 113,-288 129,-306 8,-8 14,-22 14,-31 0,-8 9,-27 20,-40 20,-26 39,-89 44,-148 2,-19 13,-55 26,-80 16,-30 23,-60 21,-90 -2,-48 26,-142 59,-197 16,-27 20,-52 20,-121 0,-48 7,-144 14,-213 16,-137 7,-115 143,-359 55,-98 76,-147 96,-226 14,-56 37,-120 52,-144 65,-103 329,-327 500,-425 66,-37 88,-45 130,-45 59,0 166,33 189,59 21,23 46,221 46,370 0,168 -18,228 -178,596 -55,127 -113,268 -130,315 -17,47 -47,130 -66,184 -20,54 -36,112 -36,128 0,16 -11,55 -25,88 -14,33 -25,72 -25,87 0,15 -7,41 -15,57 -8,15 -15,42 -15,60 0,17 -7,49 -15,71 -8,22 -14,62 -15,89 0,26 -13,87 -29,135 -18,53 -27,97 -24,114 4,19 -1,37 -14,55 -12,16 -22,52 -26,89 -4,34 -16,88 -27,120 -11,31 -19,58 -17,59 1,1 30,-3 64,-8 47,-8 70,-8 92,2 33,13 191,179 255,267 68,93 141,223 160,285 21,66 23,52 -60,368 -65,241 -90,318 -112,343 -15,17 -15,25 1,105 20,103 47,333 47,403 0,43 -5,55 -36,89 -61,66 -178,216 -237,303 -98,146 -159,284 -192,437 -20,94 -32,113 -87,141 -20,10 -39,23 -43,29 -3,5 -12,50 -19,100 -11,69 -20,99 -40,125 -41,54 -164,155 -196,161 -25,6 -50,37 -50,65 0,6 -6,25 -14,42 -8,18 -26,61 -41,97 -14,36 -30,74 -35,85 -5,11 -30,70 -56,130 -25,61 -73,160 -104,220 -32,61 -63,135 -70,165 -63,293 -98,422 -146,544 -24,60 -43,110 -41,111 1,1 31,7 67,14 89,17 155,49 218,106 47,42 60,49 103,51 52,3 77,14 321,142 143,76 218,131 218,161 0,5 10,11 23,15 34,8 195,103 262,154 96,72 182,161 247,252 33,47 86,114 118,150 77,88 110,143 110,183 0,23 -17,62 -54,124 -30,49 -66,125 -81,169 -37,110 -103,233 -185,344 -39,52 -74,104 -77,115 -3,11 -26,58 -50,105 -41,79 -42,86 -26,97 104,74 121,93 132,144 6,29 14,92 18,140 6,84 8,90 44,131 22,24 42,54 45,66 11,39 -4,137 -46,303 -48,192 -60,224 -97,242 -72,37 -380,117 -451,117 -30,0 -49,-15 -170,-135 -126,-124 -139,-134 -162,-126 -14,5 -38,12 -53,16 -22,4 -27,10 -22,23 4,9 23,62 42,117 33,92 34,103 24,145 -16,60 -125,241 -182,301 l -45,49 -80,1 h -79 l 60,18 c 68,21 276,79 408,113 116,30 118,49 7,71 l -60,13 88,73 c 48,40 180,143 295,229 114,85 207,162 207,170 0,17 -21,15 -209,-18 -63,-11 -117,-18 -119,-16 -3,4 133,72 396,199 50,23 80,49 140,116 213,239 452,531 452,554 0,29 -11,26 -194,-58 -53,-24 -225,-95 -230,-95 -2,0 61,110 140,244 136,231 158,276 134,276 -6,0 -56,-31 -113,-68 -138,-93 -217,-143 -217,-137 0,2 51,87 114,187 177,286 152,227 345,821 48,147 123,344 156,408 19,36 19,59 1,59 -8,0 -140,-84 -293,-186 -153,-102 -285,-190 -294,-194 -12,-7 -3,43 42,221 70,277 77,319 57,319 -9,0 -35,-17 -59,-38 -59,-51 -131,-103 -137,-98 -2,3 3,34 12,70 10,37 28,119 42,184 13,64 40,191 60,282 46,215 99,498 107,565 4,37 -30,25 -129,-46 -127,-93 -659,-491 -744,-557 -35,-28 -65,-50 -66,-49 -3,3 48,274 65,347 14,62 14,110 -1,110 -7,0 -64,-51 -126,-112 -85,-85 -112,-107 -108,-88 39,189 79,308 145,435 17,33 31,63 31,67 0,23 -49,-4 -223,-120 -106,-71 -255,-168 -332,-217 -187,-118 -347,-223 -417,-274 -64,-47 -64,-48 -8,74 20,44 49,109 65,145 16,36 69,143 117,239 48,96 88,178 88,183 0,18 -38,6 -85,-26 z m 2102,-1428 c -31,-73 -99,-270 -153,-438 -93,-294 -143,-423 -179,-465 l -17,-20 7,20 c 13,39 94,350 100,385 5,31 2,28 -37,-33 -80,-127 -403,-611 -468,-702 -155,-217 -231,-315 -262,-338 -35,-26 -412,-247 -422,-247 -23,0 35,52 218,195 116,91 225,177 241,191 l 30,26 -31,-16 c -17,-8 -116,-80 -220,-159 -104,-80 -190,-144 -191,-143 -1,1 23,59 54,129 l 56,127 116,93 c 194,155 451,368 451,373 0,14 -129,-83 -384,-290 -81,-65 -149,-117 -151,-114 -3,3 2,21 10,41 15,36 150,153 460,402 223,179 467,467 610,720 42,75 21,48 -126,-154 -155,-216 -235,-313 -292,-360 -51,-40 -530,-361 -540,-361 -4,0 -7,4 -7,9 0,13 94,135 224,289 67,79 139,165 162,191 22,27 74,77 115,112 108,92 359,320 359,326 0,3 -8,-1 -17,-8 -48,-36 -196,-160 -263,-219 -101,-89 -104,-90 -72,-21 25,56 37,68 197,191 170,132 241,193 200,172 -11,-6 -94,-66 -185,-135 -91,-69 -166,-124 -168,-123 -1,2 5,25 15,52 18,48 22,51 313,245 162,108 297,195 298,194 2,-2 -21,-64 -51,-137 z M 5052,12869 c -38,-85 -115,-263 -172,-396 -145,-344 -262,-547 -289,-504 -6,9 -2,25 10,45 10,17 30,62 44,99 14,37 39,95 56,128 17,34 28,63 26,65 -3,3 -24,-26 -47,-63 -68,-108 -171,-233 -192,-233 -29,0 -102,-38 -146,-76 -22,-19 -45,-34 -50,-34 -5,0 -24,16 -42,36 -41,48 -48,38 -10,-14 16,-23 30,-46 30,-52 0,-19 -17,-10 -40,20 -13,17 -29,30 -37,30 -10,0 -4,-13 16,-37 37,-45 41,-66 6,-33 -28,27 -47,20 -22,-8 23,-26 21,-42 -12,-82 l -29,-34 -49,43 c -26,24 -52,47 -57,52 -4,4 13,28 39,53 l 47,45 -4,71 -4,70 101,93 c 55,51 170,154 255,229 148,129 270,248 223,217 -29,-19 -313,-270 -454,-401 -65,-59 -120,-108 -123,-108 -3,0 -6,10 -6,23 0,18 58,76 240,241 132,120 240,220 240,223 0,13 -127,-95 -440,-374 -46,-41 -48,-42 -54,-20 -9,36 -7,59 8,71 469,375 995,781 1003,773 2,-2 -27,-73 -65,-158 z m 877,-76 c -83,-138 -90,-148 -359,-511 -282,-383 -298,-401 -390,-464 -47,-31 -179,-114 -295,-183 l -210,-126 -3,57 c -2,31 -1,62 2,69 2,7 76,63 163,126 258,185 453,331 530,397 64,56 237,248 331,370 65,84 20,39 -107,-107 -72,-82 -168,-183 -213,-226 -76,-70 -103,-86 -300,-186 -120,-60 -218,-107 -218,-105 0,3 42,40 93,82 114,97 188,164 179,164 -4,0 -92,-69 -196,-153 -235,-189 -222,-179 -242,-175 -11,2 47,54 168,150 101,80 191,154 199,164 20,26 -83,-48 -255,-181 -81,-64 -149,-115 -150,-113 -1,2 -10,23 -19,46 l -16,44 54,77 54,77 202,118 c 239,139 785,473 919,563 52,35 96,63 98,63 2,0 -7,-17 -19,-37 z m -2228,-199 c 113,-34 289,-136 313,-182 22,-42 64,-223 82,-349 19,-140 12,-158 -82,-220 -18,-12 -17,-14 11,-35 40,-30 114,-102 95,-92 -8,4 -32,21 -52,38 -42,32 -62,29 -32,-6 13,-16 14,-19 2,-10 -10,8 -19,9 -22,3 -4,-5 19,-29 49,-53 33,-26 53,-48 50,-56 -14,-37 -16,-62 -6,-62 6,0 11,6 11,13 0,29 71,157 125,226 92,117 211,192 278,176 30,-8 72,-47 92,-85 36,-69 48,-343 19,-440 -22,-73 -52,-119 -158,-235 -154,-170 -202,-201 -333,-213 l -76,-7 -39,-93 c -42,-102 -75,-159 -110,-192 -61,-57 -402,-270 -525,-328 -71,-33 -86,-37 -163,-37 -63,0 -103,6 -155,23 -159,53 -403,174 -483,239 -30,24 -52,56 -75,106 -17,40 -65,139 -105,221 -73,147 -75,150 -205,285 -202,209 -226,242 -246,341 -17,83 -50,362 -57,475 l -6,100 40,80 c 41,85 110,183 139,199 13,7 26,-1 64,-42 26,-29 53,-52 59,-52 6,0 37,-27 70,-60 33,-33 63,-60 69,-60 5,0 31,-27 58,-60 26,-33 56,-60 65,-60 9,0 19,-4 22,-9 7,-11 88,-51 102,-51 5,0 34,25 64,56 30,31 78,71 105,89 28,18 70,53 95,79 24,25 50,46 56,46 7,0 26,12 43,26 17,14 37,24 45,21 7,-3 29,10 47,29 18,19 40,34 48,34 8,0 35,17 60,38 83,69 110,85 125,73 10,-8 33,-2 93,24 151,66 236,78 334,49 z m 2370,-121 c -18,-34 -126,-140 -171,-168 -25,-15 -108,-69 -185,-120 -161,-106 -215,-139 -215,-131 0,3 37,62 83,132 l 82,127 200,87 c 110,48 204,88 208,89 4,0 3,-7 -2,-16 z m -676,-829 c -45,-38 -111,-66 -169,-69 -28,-2 -67,-10 -86,-19 -28,-11 -168,-48 -303,-80 -34,-8 -6,12 95,69 101,56 107,58 283,90 222,40 217,40 180,9 z m -1028,-735 c 35,-11 57,-10 137,5 l 96,18 45,-22 c 33,-16 57,-39 85,-80 65,-95 100,-173 100,-220 0,-76 -137,-371 -201,-435 l -31,-30 7,40 c 6,40 -18,184 -36,215 -12,21 -12,-63 1,-133 10,-49 8,-61 -9,-96 -21,-41 -50,-70 -38,-37 15,39 19,66 9,66 -6,0 -18,-21 -28,-47 -26,-71 -58,-116 -106,-155 -64,-52 -209,-146 -333,-218 -180,-103 -354,-214 -460,-295 -86,-66 -100,-73 -103,-56 -4,26 49,224 87,329 59,160 92,211 198,312 l 98,92 60,-5 c 34,-2 82,-14 108,-25 26,-12 47,-18 47,-14 0,14 -37,30 -109,47 -66,17 -71,19 -56,34 12,12 33,16 83,14 46,-1 59,1 42,7 -14,4 -37,8 -52,9 -16,1 -28,6 -28,11 0,6 4,10 9,10 4,0 38,34 74,76 37,42 88,93 114,113 27,20 85,66 131,103 45,37 107,81 137,98 72,41 76,72 4,35 -16,-9 -34,-13 -39,-10 -5,3 -49,-4 -99,-15 -50,-11 -93,-20 -97,-20 -3,0 7,17 22,38 29,40 155,146 217,182 41,24 55,60 15,39 -36,-19 -128,-84 -190,-134 -50,-40 -58,-44 -58,-26 0,40 -23,33 -81,-25 -45,-45 -59,-54 -59,-39 0,39 48,121 109,187 76,82 84,84 178,57 z m -213,-62 c -38,-40 -77,-87 -86,-105 -18,-34 -51,-52 -99,-52 h -29 l 33,48 c 19,26 41,63 50,84 15,32 26,39 100,67 45,16 86,30 91,30 5,1 -22,-32 -60,-72 z m -1621,-190 c 14,-24 43,-55 64,-68 133,-88 169,-109 237,-140 77,-34 85,-44 51,-63 -21,-13 -131,-86 -259,-174 -98,-68 -106,-68 -127,-4 -15,50 -49,103 -59,97 -5,-3 2,-35 16,-70 32,-87 32,-98 -2,-80 -14,7 -32,22 -40,34 -15,21 -68,36 -101,29 -11,-3 0,-10 31,-19 l 50,-14 29,-80 c 36,-103 33,-143 -26,-303 -25,-68 -69,-216 -98,-330 -28,-114 -53,-209 -54,-210 -2,-2 -19,18 -39,45 -66,91 -158,436 -172,649 l -6,89 46,35 c 26,19 57,43 69,53 22,18 21,18 -9,3 -18,-8 -46,-27 -63,-42 -25,-20 -31,-22 -31,-9 0,23 24,66 105,190 93,141 117,167 189,210 33,19 56,35 50,35 -5,-1 -20,-7 -34,-15 -30,-17 -40,-18 -40,-5 0,11 179,200 190,200 5,0 19,-19 33,-43 z m 1359,-97 c -4,-83 -3,-92 23,-135 15,-26 46,-61 71,-77 24,-17 41,-35 38,-40 -3,-4 -40,-39 -83,-76 l -78,-69 -119,-7 c -130,-7 -295,-23 -333,-32 -19,-4 -7,12 47,61 74,68 93,99 45,68 -19,-11 -12,0 21,35 28,28 48,54 45,56 -2,3 -75,-61 -160,-142 -122,-115 -175,-158 -244,-196 -99,-55 -131,-57 -190,-12 -46,36 -102,56 -192,70 l -78,12 31,30 c 34,31 69,51 206,113 62,28 85,35 81,23 -5,-11 -3,-13 6,-7 7,4 24,31 37,61 23,53 23,53 56,43 51,-15 168,-12 218,6 94,33 386,195 490,272 25,18 50,33 56,33 7,0 9,-30 6,-90 z m 1555,-30 c 183,-47 206,-58 225,-107 23,-57 65,-235 82,-347 14,-88 14,-101 0,-128 -25,-48 -168,-191 -216,-216 l -43,-22 -17,21 c -10,12 -18,29 -18,38 0,21 127,181 191,241 27,25 49,54 49,63 0,24 -8,21 -37,-13 -14,-17 -46,-42 -72,-57 -25,-14 -54,-33 -64,-41 -39,-34 -26,2 30,80 64,88 83,120 83,137 0,24 -18,8 -57,-52 -22,-34 -61,-83 -85,-110 l -45,-47 -86,1 c -97,2 -101,1 -198,-86 -34,-30 -65,-55 -69,-55 -12,0 -30,99 -30,168 0,105 -17,62 -34,-86 -9,-72 -22,-147 -30,-165 -7,-19 -36,-50 -65,-71 -79,-58 -216,-210 -292,-325 -38,-57 -69,-108 -69,-113 0,-4 -4,-8 -8,-8 -13,0 -42,143 -48,242 -9,142 10,366 34,415 31,61 219,306 244,319 13,6 60,15 105,18 44,4 94,11 110,16 19,6 -1,7 -59,4 -49,-4 -88,-3 -88,0 0,4 19,32 42,63 l 42,56 93,-7 c 51,-3 133,-17 182,-30 50,-13 88,-20 86,-15 -10,16 -106,40 -215,54 -63,9 -115,17 -117,19 -2,2 42,47 99,101 l 102,97 55,-7 c 31,-4 124,-24 208,-45 z m -3239,-49 64,-6 -32,-40 c -55,-68 -196,-288 -211,-328 -8,-24 -26,-46 -49,-60 -47,-29 -106,-83 -132,-121 -15,-21 -3,-14 38,25 54,50 105,89 119,89 3,0 5,-11 5,-25 0,-17 -9,-29 -29,-39 -37,-20 -91,-65 -91,-77 0,-6 17,3 38,20 20,16 47,32 58,35 19,6 22,2 28,-36 5,-36 -2,-65 -43,-173 -41,-108 -137,-338 -149,-354 -1,-3 -16,9 -33,26 -27,26 -32,42 -45,124 -30,204 -14,335 57,447 49,78 37,75 -17,-4 l -39,-56 -19,81 -19,81 68,102 c 71,107 193,258 229,283 22,16 90,18 204,6 z m 1539,-429 c -97,-99 -129,-159 -197,-363 -37,-111 -100,-370 -100,-410 0,-24 -3,-24 -103,2 -104,26 -416,79 -469,79 h -41 l 6,93 c 4,63 15,121 36,185 17,52 31,99 31,106 0,7 18,41 40,74 22,34 35,62 30,62 -19,0 -102,-141 -132,-223 -23,-64 -58,-203 -58,-233 0,-12 19,-1 23,14 3,9 5,3 6,-15 2,-48 -8,-63 -40,-63 -36,0 -93,-19 -239,-81 -114,-48 -253,-80 -271,-62 -20,20 57,314 143,546 l 51,137 66,54 c 126,102 134,105 231,95 47,-5 97,-13 112,-18 43,-15 118,-70 118,-86 0,-35 74,-12 219,69 64,35 145,72 181,81 84,22 252,43 359,44 l 85,1 z m 1615,-162 c 21,-43 30,-80 38,-169 7,-62 9,-133 5,-157 -5,-38 -4,-44 11,-44 48,0 169,-190 195,-305 6,-27 15,-63 19,-80 7,-28 8,-27 9,14 l 1,45 26,-35 c 93,-123 161,-250 204,-379 12,-36 46,-106 76,-156 30,-51 54,-102 54,-115 0,-30 -36,-85 -107,-163 -29,-32 -78,-96 -108,-142 -31,-46 -92,-117 -136,-158 -141,-133 -343,-252 -424,-250 -64,2 -152,50 -225,124 -139,139 -173,307 -88,435 17,25 79,96 137,156 l 106,109 62,-6 c 67,-7 260,14 246,26 -4,5 -35,4 -68,-2 -94,-15 -212,-6 -265,22 -64,33 -163,132 -225,225 -62,93 -145,256 -170,335 -10,30 -30,66 -45,80 l -27,25 39,52 c 32,43 47,55 91,68 66,21 154,30 201,21 65,-12 175,-145 283,-341 64,-115 93,-194 93,-250 0,-27 5,-45 11,-45 15,0 4,104 -17,162 -30,87 -163,303 -242,396 -67,78 -120,106 -201,105 -36,0 -83,-5 -104,-11 l -38,-11 42,47 c 52,57 79,83 151,144 33,28 61,61 67,80 8,25 21,37 54,51 24,9 74,46 113,81 103,94 116,95 156,16 z m 307,-177 c -9,-110 -18,-133 -66,-169 -83,-64 -86,-65 -121,-37 -18,13 -32,28 -32,32 0,14 206,257 220,260 3,1 2,-38 -1,-86 z M 1753,9433 c 8,-15 38,-52 67,-82 l 52,-54 -26,-161 c -28,-172 -51,-340 -61,-447 -7,-65 -7,-66 25,-92 17,-15 42,-30 56,-33 32,-8 31,-15 -13,-58 -38,-37 -57,-44 -68,-26 -11,17 -145,79 -200,91 -54,12 -54,12 -61,57 -9,60 9,133 57,232 35,74 99,189 137,248 8,12 11,22 8,22 -13,0 -109,-157 -164,-269 -52,-104 -57,-120 -61,-192 -3,-76 -4,-79 -26,-73 -18,4 -85,-18 -85,-29 0,-1 35,-2 78,-2 95,-1 195,-31 271,-83 51,-34 58,-44 98,-136 24,-55 43,-100 43,-101 0,-1 -22,-5 -49,-9 -111,-15 -250,-123 -308,-238 -43,-87 -53,-111 -53,-130 0,-30 -21,-21 -97,42 -103,86 -186,186 -231,282 -42,88 -82,198 -82,223 0,8 27,66 59,128 33,61 73,153 89,202 34,104 69,176 145,297 86,136 287,387 287,359 0,-36 13,4 20,66 5,39 19,96 32,129 l 22,59 12,-97 c 7,-53 19,-109 27,-125 z m 207,-56 c 10,-42 30,-103 42,-134 23,-55 23,-62 11,-148 -7,-49 -19,-155 -28,-235 -17,-150 -19,-160 -36,-160 -6,0 -40,-12 -75,-26 -36,-14 -68,-24 -70,-21 -7,7 21,244 47,406 33,210 75,408 85,399 2,-3 13,-39 24,-81 z m 1127,-67 c 181,-31 332,-65 346,-79 7,-7 -7,-204 -19,-261 l -6,-25 -20,28 c -33,46 -196,184 -241,205 -52,25 -107,37 -107,24 0,-5 17,-12 38,-16 56,-8 124,-58 236,-169 l 99,-98 -6,-74 c -4,-41 -3,-77 2,-80 5,-3 38,-8 72,-12 54,-5 67,-11 89,-37 14,-16 39,-44 55,-62 17,-17 41,-50 55,-73 21,-35 50,-55 50,-35 0,6 -66,102 -117,170 l -23,31 52,-4 c 251,-20 602,-69 708,-99 l 55,-16 -70,-67 c -49,-47 -96,-79 -156,-109 -48,-23 -92,-48 -99,-56 -10,-13 -18,-12 -60,9 -82,42 -233,75 -364,82 -116,6 -121,7 -164,39 -52,41 -87,43 -168,13 -52,-20 -81,-22 -278,-24 -122,-1 -231,-6 -243,-10 -22,-7 -23,-5 -23,39 0,26 6,61 13,79 14,31 32,40 146,73 7,3 76,5 152,5 83,0 137,4 134,10 -4,5 -54,9 -113,10 -59,0 -101,3 -94,6 6,2 12,8 12,12 0,14 -124,-10 -177,-34 l -52,-23 -22,56 c -30,76 -35,185 -15,302 18,108 20,133 7,110 -5,-8 -16,-71 -26,-138 -16,-126 -12,-216 15,-287 5,-14 10,-28 10,-30 0,-2 -24,-6 -52,-10 -63,-7 -188,-45 -188,-57 0,-10 -6,-11 68,12 35,11 89,20 119,20 h 55 l -7,-77 c -4,-43 -12,-81 -17,-84 -5,-3 -52,-11 -106,-18 -132,-17 -311,-57 -404,-91 l -78,-29 v 32 c 0,18 -16,58 -42,100 -36,60 -42,78 -46,142 l -5,73 55,7 c 30,4 61,10 68,15 8,5 17,60 26,151 8,79 20,180 27,223 l 12,80 88,13 c 61,8 122,27 205,61 64,28 137,57 162,65 68,24 180,20 377,-13 z m 497,-157 c -7,-65 -16,-177 -19,-250 l -8,-131 -56,5 c -31,2 -61,6 -66,8 -10,3 -6,129 10,280 6,57 10,65 71,133 36,39 69,72 73,72 3,0 1,-53 -5,-117 z m 1301,-295 c 38,-58 137,-160 188,-194 23,-16 44,-30 46,-31 3,-2 -8,-16 -25,-31 -50,-46 -206,-226 -217,-249 -7,-16 -19,-23 -37,-23 -46,0 -326,-197 -395,-278 l -20,-23 -133,15 c -74,9 -138,16 -142,16 -5,0 -6,15 -3,34 5,30 2,36 -25,50 -42,22 -44,37 -7,74 18,19 38,45 46,59 13,24 12,27 -19,53 l -33,27 163,6 c 257,9 379,50 430,144 28,51 74,168 114,293 33,100 33,100 37,100 3,0 17,-19 32,-42 z M 2020,8524 c 41,-6 49,-11 78,-55 45,-69 42,-93 -18,-149 -58,-54 -63,-79 -20,-110 29,-21 29,-22 13,-46 l -16,-25 -46,44 c -25,24 -59,51 -74,61 -18,11 -39,41 -56,79 -53,118 -54,105 3,163 36,37 57,51 71,48 11,-3 40,-7 65,-10 z m 1135,-29 c -5,-3 -113,-27 -240,-55 -462,-102 -653,-155 -743,-205 -41,-23 -46,-24 -73,-10 -16,9 -29,22 -29,29 0,16 49,60 92,82 42,22 201,71 283,89 70,14 384,61 460,68 55,5 262,6 250,2 z m 415,-256 c 56,-28 100,-53 98,-55 -2,-2 -20,1 -39,6 -19,5 -74,13 -124,19 -49,5 -103,14 -118,20 -49,19 -162,12 -320,-18 -83,-17 -188,-32 -232,-36 l -80,-6 95,34 c 52,19 124,46 160,60 62,24 75,26 262,26 l 196,1 z m -1175,-73 c -88,-46 -179,-94 -201,-107 l -42,-23 -41,27 c -22,15 -41,32 -41,37 0,19 48,39 200,83 312,90 327,88 125,-17 z m 929,-59 49,-13 -79,-21 c -43,-12 -133,-36 -199,-53 -66,-17 -196,-55 -290,-85 -302,-95 -489,-136 -618,-134 h -62 l 90,27 c 50,16 115,38 145,49 30,12 102,36 160,54 92,28 378,134 389,145 31,29 -177,8 -384,-37 -141,-31 -232,-58 -343,-101 -99,-38 -104,-39 -117,-22 -20,27 -19,29 19,31 19,2 123,25 232,53 203,52 340,78 574,111 150,21 347,19 434,-4 z m 551,-63 c 45,-15 100,-26 125,-25 214,6 271,4 397,-15 30,-4 31,-6 22,-37 -12,-43 -11,-123 2,-170 14,-53 20,-42 10,21 -4,29 -4,52 0,52 5,0 9,-8 9,-18 0,-36 88,-199 153,-284 l 66,-87 -45,-46 c -73,-76 -210,-124 -352,-125 -34,0 -77,-6 -95,-14 -18,-7 -80,-57 -137,-111 -161,-150 -241,-185 -295,-130 -54,53 -42,69 194,287 92,84 94,87 79,110 -12,18 -29,25 -82,31 -64,8 -67,7 -113,-24 -63,-44 -176,-89 -238,-96 -41,-4 -55,-1 -75,15 l -25,21 41,-6 c 35,-4 44,-2 58,18 20,29 21,63 1,79 -8,7 -15,18 -15,24 0,16 181,135 210,138 21,3 27,-3 35,-29 5,-18 12,-33 16,-33 4,0 3,15 -2,32 -5,18 -9,34 -9,35 0,2 38,3 85,3 50,0 85,4 85,10 0,13 -174,13 -218,0 -19,-5 -65,-31 -104,-57 -63,-43 -75,-48 -138,-51 -63,-4 -71,-2 -94,21 -15,15 -26,37 -26,53 v 27 l 25,-27 c 57,-61 116,-7 81,76 -6,13 14,30 95,83 56,36 108,64 115,61 8,-3 14,-1 14,4 0,19 149,3 243,-26 9,-3 17,-1 17,3 0,11 -127,42 -203,50 -61,6 -60,7 -235,-101 -70,-43 -98,-56 -115,-50 -26,8 -57,33 -57,47 0,6 8,3 18,-6 25,-23 51,-21 79,5 25,24 29,54 12,92 -10,22 -8,28 25,57 21,18 58,59 83,92 l 46,60 76,-6 c 42,-3 112,-18 156,-33 z m -1886,-59 c 49,-53 111,-176 111,-220 0,-41 -23,-71 -65,-85 -30,-10 -39,-9 -68,9 -40,25 -124,121 -149,169 -20,40 -23,93 -8,122 15,28 59,49 101,50 31,0 43,-7 78,-45 z m 1336,-84 c 5,-9 -29,-18 -159,-41 -33,-5 -163,-10 -290,-9 -218,1 -229,2 -186,16 25,8 68,17 95,19 230,22 530,30 540,15 z M 1908,7728 c 156,-166 190,-243 137,-306 -28,-33 -63,-46 -94,-34 -11,4 -81,67 -155,141 -132,129 -136,135 -136,175 0,35 6,47 38,77 42,41 84,70 93,67 4,-2 56,-56 117,-120 z m 1220,83 c 85,-8 120,-24 93,-41 -33,-20 -185,-31 -376,-28 -127,2 -292,-4 -452,-15 -138,-10 -258,-17 -266,-15 -10,2 -12,9 -7,24 7,18 20,23 87,29 43,4 112,14 153,22 41,9 122,19 180,23 146,10 488,10 588,1 z m -673,-158 c -7,-27 -24,-86 -38,-133 -51,-166 -126,-535 -112,-548 2,-3 6,1 8,9 9,36 131,371 177,488 25,65 6,67 -22,4 -20,-45 -21,-46 -28,-23 -3,14 -3,27 0,30 4,3 10,25 14,50 4,25 15,72 25,105 l 19,60 121,3 c 66,1 121,0 121,-2 0,-3 -29,-93 -64,-200 -62,-186 -221,-800 -271,-1045 -13,-65 -29,-174 -36,-244 l -12,-127 38,-82 c 47,-101 156,-306 237,-446 40,-71 62,-122 69,-160 21,-123 42,-209 60,-244 11,-21 19,-39 19,-42 0,-5 -48,13 -106,40 -18,7 -46,30 -63,49 -17,19 -36,35 -42,35 -7,0 -9,3 -6,6 9,9 -83,115 -94,108 -5,-3 -8,0 -7,8 2,7 -2,12 -9,11 -7,-2 -10,3 -7,11 3,7 -5,22 -18,33 -13,10 -27,26 -33,34 -5,9 -26,40 -46,70 -20,30 -82,132 -138,226 -56,95 -107,175 -112,179 -15,9 5,-28 159,-296 139,-243 219,-367 327,-505 79,-101 107,-127 175,-162 30,-16 54,-34 52,-41 -1,-7 3,-33 8,-58 6,-25 8,-49 5,-54 -7,-12 -251,88 -304,125 -55,38 -180,180 -246,279 -42,64 -79,116 -82,116 -11,0 73,-143 124,-211 121,-160 352,-401 420,-437 12,-7 38,-12 57,-12 41,0 45,-9 16,-35 -13,-12 -18,-26 -14,-39 3,-14 2,-17 -4,-8 -6,9 -21,-5 -52,-50 -24,-35 -48,-67 -54,-73 -6,-5 -48,-56 -93,-112 -74,-92 -79,-101 -50,-88 105,44 190,75 195,71 17,-18 -273,-534 -320,-569 -33,-25 -198,-47 -372,-50 l -130,-2 -49,70 c -71,103 -140,234 -194,367 -25,65 -48,116 -50,114 -9,-9 61,-195 106,-286 72,-145 237,-391 277,-413 8,-5 67,-9 132,-10 129,-2 242,19 286,54 55,44 241,348 375,616 64,129 75,145 111,163 22,11 40,25 40,31 0,6 4,8 8,5 5,-3 27,6 50,19 23,13 44,20 47,15 3,-4 -11,-54 -31,-111 -86,-246 -230,-581 -386,-894 -55,-110 -93,-193 -85,-185 30,30 242,449 310,612 14,34 44,81 151,238 25,35 42,68 40,72 -6,9 20,11 28,2 3,-3 -14,-63 -38,-134 -44,-131 -106,-273 -200,-462 -58,-116 -73,-168 -23,-78 17,30 52,91 76,135 25,44 79,124 120,179 54,71 72,101 64,109 -6,6 -11,16 -11,22 0,5 5,2 11,-9 10,-17 14,-15 51,24 26,30 42,40 49,33 13,-13 35,-111 44,-196 6,-64 5,-71 -29,-137 -20,-39 -34,-70 -31,-70 3,0 -4,-10 -15,-22 -12,-13 -31,-39 -41,-58 -70,-123 -174,-266 -254,-345 -72,-72 -371,-333 -458,-398 l -49,-37 h -123 c -115,0 -126,2 -174,28 -28,15 -83,58 -121,96 -39,38 -73,66 -77,63 -3,-4 1,-15 10,-25 22,-24 22,-27 -8,-27 -14,0 -25,3 -25,6 0,4 -13,9 -30,11 l -29,4 34,-65 c 19,-35 33,-67 30,-69 -11,-11 -310,207 -429,312 l -68,61 7,95 c 3,52 13,164 21,249 8,85 14,186 14,224 v 70 l 51,-74 c 166,-238 327,-431 440,-529 59,-50 57,-47 -26,40 -185,193 -396,484 -567,780 -95,164 -96,188 -28,435 46,168 203,670 227,725 l 15,35 24,-55 c 141,-314 189,-417 259,-555 45,-88 108,-205 140,-260 71,-123 197,-316 203,-311 3,4 -91,167 -211,366 -84,140 -437,891 -437,930 0,10 9,70 20,135 12,65 34,213 50,329 41,290 76,487 103,576 l 22,75 7,-50 c 3,-27 7,-111 8,-185 1,-74 5,-144 10,-155 11,-26 3,347 -12,532 -12,147 -9,184 27,328 29,119 51,180 66,177 52,-13 114,60 107,127 -3,38 -3,39 33,45 48,8 89,54 89,102 0,19 2,34 4,34 2,0 12,3 21,6 15,6 15,4 0,-32 -23,-56 -116,-366 -111,-371 2,-2 25,60 51,139 57,170 156,440 192,521 24,53 28,57 60,57 28,0 33,-3 29,-17 -3,-10 -26,-85 -52,-168 -112,-362 -219,-757 -211,-779 3,-6 8,3 12,19 36,146 89,331 157,550 44,143 90,290 101,327 23,76 20,75 138,77 l 76,1 z m 532,41 29,-6 18,-511 c 10,-282 22,-555 26,-607 5,-52 14,-158 21,-235 6,-77 13,-142 15,-144 14,-14 13,34 -6,270 -24,311 -50,873 -50,1082 v 147 h 33 c 59,0 58,3 68,-256 10,-291 17,-377 32,-398 14,-20 16,16 20,384 l 2,255 42,-3 c 22,-2 62,-6 88,-10 43,-6 48,-10 60,-46 19,-56 36,-68 102,-75 l 58,-6 -36,-23 c -48,-29 -66,-71 -49,-112 27,-66 96,-77 215,-35 38,14 72,21 76,17 10,-12 49,-110 49,-123 0,-7 -25,-38 -55,-70 -61,-64 -66,-84 -34,-135 28,-47 69,-54 155,-29 18,6 24,-4 59,-105 l 38,-112 -7,-126 c -11,-202 -35,-496 -52,-629 -20,-156 -13,-182 10,-38 20,131 41,354 56,596 6,96 15,190 20,207 5,19 5,52 0,80 -5,26 -14,78 -21,115 l -12,68 38,39 c 22,22 42,40 46,40 7,0 61,-217 74,-295 14,-86 57,-271 66,-279 12,-13 12,-13 -10,95 -30,148 -39,238 -32,319 l 7,75 22,-75 c 31,-100 32,-103 36,-99 3,2 -4,47 -15,99 -23,112 -23,226 1,223 8,-1 47,-11 85,-21 l 70,-19 34,-99 c 18,-54 55,-192 82,-306 44,-187 56,-220 120,-355 74,-154 222,-493 254,-577 15,-41 17,-69 12,-180 -4,-112 -10,-150 -43,-263 -21,-73 -43,-133 -48,-133 -6,0 -27,60 -47,133 -20,72 -49,165 -63,206 -15,41 -34,106 -43,145 -27,117 -26,57 1,-86 14,-73 37,-221 51,-328 14,-107 36,-279 50,-381 14,-102 25,-217 26,-255 1,-115 -29,-376 -47,-412 -9,-18 -17,-39 -18,-47 -1,-8 -9,-22 -18,-32 -8,-10 -36,-50 -60,-88 -25,-39 -61,-85 -79,-103 l -33,-32 -120,-2 c -67,-2 -142,-2 -168,-1 -27,0 -48,-3 -48,-7 0,-10 198,-82 297,-109 l 73,-20 41,47 c 65,74 115,153 174,275 70,144 78,190 58,367 -13,123 -13,144 3,245 10,60 18,124 18,142 1,17 4,29 7,27 4,-2 12,27 19,64 16,83 44,167 56,167 5,0 16,-30 26,-66 43,-175 73,-437 84,-738 6,-152 10,-189 18,-172 10,17 14,-2 24,-106 7,-79 17,-130 24,-135 7,-4 8,-8 3,-8 -8,0 -8,-25 -3,-78 9,-90 7,-243 -3,-236 -4,2 -17,-13 -30,-33 -12,-21 -60,-95 -106,-164 -58,-88 -81,-132 -77,-145 4,-14 3,-16 -4,-5 -7,10 -20,-1 -52,-50 -24,-34 -43,-69 -43,-75 0,-7 -4,-11 -8,-8 -4,2 -18,-13 -30,-33 -13,-21 -29,-44 -36,-51 -7,-8 -18,-22 -23,-32 -6,-11 -26,-22 -44,-26 -40,-7 -140,35 -451,186 -263,129 -309,171 -608,570 -183,243 -451,637 -499,735 -32,63 -115,425 -98,425 4,0 32,-24 63,-52 51,-48 68,-75 167,-273 80,-161 133,-253 197,-342 118,-163 311,-397 423,-513 l 92,-95 -69,80 c -213,246 -450,554 -488,634 -12,25 -31,82 -41,126 -10,44 -21,82 -26,85 -4,3 -3,12 2,20 11,17 -35,60 585,-550 215,-211 419,-408 455,-437 76,-63 209,-133 253,-133 25,0 42,12 87,59 72,76 113,147 172,293 55,137 61,173 18,105 -16,-26 -30,-54 -30,-62 0,-8 -4,-14 -9,-12 -4,1 -50,-41 -102,-93 -52,-53 -113,-105 -137,-117 -38,-19 -46,-19 -71,-7 -15,7 -38,15 -52,16 -13,2 -26,5 -29,8 -3,3 -23,14 -45,25 -22,10 -87,44 -145,75 -119,63 -73,20 -957,888 -399,393 -484,481 -496,516 -22,65 -116,666 -168,1081 l -22,170 41,265 c 23,146 59,380 81,520 22,140 47,306 56,368 l 17,112 h 93 c 51,0 106,-3 122,-6 z m -1205,-173 111,-109 -33,-29 c -72,-65 -13,-152 63,-93 14,11 27,30 29,42 5,33 28,35 28,1 -1,-35 -19,-59 -54,-73 -39,-14 -91,1 -154,47 -28,21 -70,50 -92,65 -44,31 -48,48 -25,105 21,51 18,55 -7,8 l -21,-40 -13,35 c -7,19 -13,46 -13,59 -1,29 38,91 57,91 7,0 63,-49 124,-109 z m 923,-137 c -19,-120 -50,-316 -69,-434 -83,-516 -82,-496 -62,-663 17,-143 16,-230 -5,-242 -5,-4 -9,15 -10,42 -1,26 -5,59 -9,73 -11,34 -12,-86 -1,-215 5,-55 5,-120 2,-145 l -7,-45 -47,80 -48,80 6,120 c 11,206 57,493 164,1009 35,168 34,163 22,150 -19,-20 -131,-577 -171,-853 -11,-79 -23,-187 -27,-240 -9,-137 -14,-146 -45,-75 l -26,59 14,120 c 21,180 37,254 144,690 88,356 194,724 205,713 3,-2 -11,-103 -30,-224 z m -1000,-45 c 70,-47 139,-99 147,-113 27,-40 -16,-138 -62,-144 l -25,-4 26,29 c 31,34 41,67 29,99 -14,36 -55,32 -94,-10 l -32,-33 -39,32 -38,33 20,40 c 15,32 16,39 5,34 -11,-4 -13,-1 -8,9 4,8 -2,3 -13,-10 l -21,-23 v 55 c 0,30 3,63 7,73 6,15 9,14 27,-8 12,-14 44,-40 71,-59 z m -129,-34 c 0,-53 4,-69 22,-88 l 21,-23 -21,-34 c -106,-174 -235,-497 -317,-792 -22,-79 -58,-201 -80,-273 -53,-168 -95,-395 -73,-395 5,0 35,57 66,128 68,154 88,193 81,167 -24,-102 -77,-373 -90,-465 -41,-301 -75,-450 -137,-599 -18,-42 -108,-228 -201,-413 -143,-287 -172,-338 -190,-338 -23,0 -52,17 -110,63 -39,31 -149,77 -183,77 -13,0 -46,5 -74,11 -103,22 -153,100 -164,254 -4,50 -9,106 -12,126 -5,34 -1,40 71,110 476,462 591,626 761,1089 41,113 129,354 195,535 149,408 173,467 258,630 57,108 167,295 175,295 1,0 2,-29 2,-65 z M 4921,5782 c 115,-78 174,-155 184,-240 13,-113 56,-399 75,-499 25,-129 40,-326 40,-512 0,-79 3,-141 8,-137 17,17 39,721 24,782 -17,73 3,67 27,-9 33,-102 91,-223 153,-319 67,-102 208,-290 256,-340 l 35,-37 -12,-138 c -19,-225 -46,-357 -133,-658 -54,-189 -116,-310 -271,-528 -27,-38 -46,-72 -43,-75 3,-3 7,-3 9,-1 55,71 107,144 159,224 36,55 75,108 86,119 12,10 19,23 16,27 -3,5 -1,9 5,9 14,0 67,92 62,110 -1,8 0,12 4,8 11,-11 48,40 39,53 -4,7 -3,9 3,6 5,-3 26,26 46,65 l 37,70 11,-29 c 22,-59 109,-414 109,-449 0,-19 -15,-68 -33,-107 -36,-77 -123,-217 -135,-217 -4,0 -15,12 -24,28 -30,49 -113,123 -131,116 -9,-3 -14,-11 -10,-17 4,-6 1,-7 -6,-2 -8,4 -24,-1 -39,-12 -15,-10 -43,-27 -62,-36 -74,-37 -145,-80 -158,-96 -7,-9 -11,-10 -7,-4 4,8 -6,6 -24,-4 -16,-10 -27,-22 -24,-27 3,-5 1,-6 -5,-2 -6,3 -42,-10 -81,-31 -38,-21 -72,-35 -75,-32 -4,3 5,36 19,73 14,37 22,73 19,79 -4,7 -3,9 1,4 5,-4 14,5 20,20 9,20 9,30 1,35 -8,5 -7,8 1,8 7,0 21,21 32,46 11,25 41,75 65,110 25,35 41,64 36,64 -21,0 -287,-377 -399,-566 -65,-111 -54,-107 -211,-78 -74,14 -147,28 -163,32 -27,7 -27,8 154,247 99,132 255,350 345,485 138,206 166,254 176,302 26,124 -57,1337 -97,1425 -8,17 -15,45 -15,62 0,17 -4,31 -9,31 -5,0 -7,8 -4,19 2,10 -2,67 -11,127 -13,95 -22,123 -67,214 -38,76 -53,120 -57,162 -5,65 3,71 49,40 z M 777,5585 C 692,5423 614,5312 567,5289 458,5233 313,5125 205,5020 l -61,-58 -49,42 -49,43 104,102 c 58,56 202,175 320,265 118,91 247,192 285,224 39,33 72,59 74,57 1,-2 -22,-51 -52,-110 z m 548,-272 c -3,-54 -10,-215 -15,-358 l -9,-260 -60,-208 c -33,-114 -63,-233 -67,-263 -8,-68 -24,-69 -71,-4 -19,25 -47,61 -63,81 l -29,37 69,258 c 37,143 85,315 106,384 20,69 42,143 48,165 15,52 89,265 93,265 2,0 1,-44 -2,-97 z M 830,4355 c 0,-4 -7,-20 -17,-38 -21,-41 -138,-362 -148,-404 -7,-37 -21,-43 -29,-15 -7,22 -34,37 -93,52 -24,6 -43,15 -43,19 0,8 67,177 76,192 2,4 20,1 39,-7 19,-8 41,-14 49,-14 25,0 52,37 97,131 23,49 49,89 56,89 7,0 13,-2 13,-5 z m 2733,-630 c 292,-388 326,-417 722,-600 217,-100 320,-150 334,-161 2,-2 -11,-22 -29,-44 -38,-48 -31,-48 -173,4 -96,35 -217,69 -287,80 l -35,5 35,-16 c 19,-8 50,-22 68,-29 18,-8 54,-33 80,-57 26,-24 77,-67 114,-96 77,-60 77,-62 7,-125 -44,-41 -132,-86 -164,-85 -11,0 -37,6 -57,13 -61,22 -419,224 -504,285 l -79,56 -23,80 c -12,44 -43,204 -67,355 -43,262 -77,456 -91,510 -9,35 -6,31 149,-175 z m -229,-344 c 58,-123 46,-165 -60,-213 -33,-14 -104,-46 -159,-71 -55,-25 -112,-49 -127,-52 -16,-4 -25,-12 -21,-18 3,-5 2,-7 -4,-4 -6,4 -52,-7 -102,-24 -96,-32 -124,-31 -81,3 73,59 108,93 103,102 -3,5 -1,6 5,2 7,-4 38,18 73,51 169,159 284,275 285,286 1,6 2,15 3,18 0,3 12,4 25,2 18,-4 32,-23 60,-82 z M 2109,2565 c 26,-8 65,-19 89,-25 23,-6 42,-13 42,-15 0,-2 -36,-2 -80,2 -56,4 -80,3 -80,-5 0,-13 22,-19 90,-26 25,-2 70,-13 100,-25 42,-16 79,-20 157,-21 79,0 105,-4 117,-16 23,-22 20,-51 -6,-58 -77,-20 -437,12 -499,44 -21,12 -22,19 -13,109 6,50 10,61 22,56 9,-3 36,-12 61,-20 z m 11,-200 c 36,-8 118,-18 183,-22 110,-6 121,-8 168,-38 l 51,-32 -98,-6 c -103,-6 -341,15 -375,34 -13,7 -19,21 -19,44 0,40 0,40 90,20 z m 2535,-59 80,-13 -47,-7 c -27,-5 -48,-14 -48,-20 0,-9 23,-12 83,-9 45,1 129,4 187,7 58,2 114,7 125,10 11,4 -6,-6 -37,-23 -104,-54 -361,-122 -382,-100 -3,3 -21,42 -40,87 -40,94 -47,88 79,68 z m -2565,-47 c 25,-5 108,-16 185,-25 104,-12 152,-22 187,-40 48,-24 48,-24 48,-76 v -51 l -182,7 c -137,6 -196,12 -235,26 -41,14 -53,15 -53,5 0,-17 18,-30 63,-44 43,-14 50,-33 10,-26 -16,2 -45,7 -65,10 -22,3 -44,15 -53,28 -19,27 -19,76 0,101 13,17 19,18 72,7 135,-27 387,-51 399,-38 12,12 1,15 -101,26 -178,20 -356,53 -362,68 -9,23 6,46 25,38 9,-4 37,-11 62,-16 z m 3038,-85 c -18,-25 -36,-48 -40,-50 -23,-15 -1,-24 57,-24 66,0 125,21 167,57 16,14 18,13 28,-11 16,-43 12,-74 -11,-87 -12,-6 -86,-33 -166,-60 -161,-55 -270,-71 -393,-61 l -74,7 -9,38 c -5,21 -7,40 -5,42 2,2 73,24 158,49 188,54 215,65 269,110 24,20 45,36 48,36 2,0 -11,-21 -29,-46 z M 2165,2001 c 188,-16 326,-34 323,-42 -2,-3 -20,-27 -42,-52 -28,-33 -52,-51 -88,-63 -78,-26 -137,-16 -276,47 -128,57 -133,62 -124,130 l 4,26 36,-18 c 23,-11 85,-21 167,-28 z m 3203,-23 c 24,-79 28,-73 -72,-114 -50,-20 -132,-54 -182,-75 -50,-21 -109,-41 -131,-45 -40,-6 -186,12 -214,26 -16,9 -69,109 -69,131 0,8 15,10 51,6 29,-4 54,-8 56,-10 2,-3 -2,-16 -8,-31 -7,-14 -9,-29 -6,-33 8,-7 111,22 177,50 25,11 78,25 117,32 45,8 102,29 150,53 98,51 118,52 131,10 z M 2000,1870 c 18,-23 57,-61 86,-85 69,-56 128,-66 259,-42 50,9 100,19 113,23 21,6 22,3 22,-40 0,-81 -7,-86 -113,-86 -105,1 -131,5 -277,48 -58,17 -124,34 -147,38 -36,5 -43,10 -43,29 0,39 41,155 55,155 7,0 28,-18 45,-40 z m 3400,-60 c 0,-6 -15,-35 -34,-64 l -33,-52 -139,-47 c -102,-34 -167,-49 -243,-56 -160,-17 -160,-17 -178,27 -8,20 -18,54 -21,75 -4,33 -2,37 16,37 12,0 55,-13 97,-30 42,-16 89,-30 104,-30 32,0 137,36 306,104 123,50 125,50 125,36 z m 95,-100 c 8,-16 15,-46 15,-68 v -39 l -132,-49 c -153,-56 -202,-62 -412,-46 -88,7 -133,14 -143,24 -12,13 -3,16 74,22 48,3 117,13 153,21 99,24 170,30 170,15 0,-31 124,33 210,110 25,21 46,40 47,40 1,0 9,-13 18,-30 z M 2740,1201 c 0,-11 -19,-33 -47,-54 -55,-40 -287,-158 -416,-211 -121,-50 -244,-114 -355,-185 -107,-69 -208,-110 -367,-152 -147,-38 -282,-59 -382,-59 -93,0 -127,10 -144,41 -10,20 -9,21 12,15 13,-4 69,-10 124,-13 192,-10 536,68 675,154 172,106 350,205 439,244 147,64 362,174 406,207 48,36 55,38 55,13 z m 2177,-146 c 81,-121 125,-211 163,-330 50,-159 83,-218 180,-315 96,-98 248,-222 335,-275 53,-32 66,-35 132,-35 41,0 94,5 119,11 52,13 61,8 47,-24 -8,-17 -27,-28 -70,-40 -82,-23 -135,-21 -191,7 -77,39 -320,226 -413,318 -95,94 -129,152 -150,258 -14,74 -21,90 -135,295 -53,95 -85,166 -90,195 -8,55 -5,52 73,-65 z"
           id="path6086" />
        <path
           d="m 4469,11858 c -52,-31 -154,-142 -179,-193 -18,-38 -21,-59 -18,-121 3,-73 5,-77 41,-110 20,-19 46,-34 58,-34 18,0 20,-4 15,-27 -4,-16 -12,-40 -18,-55 -9,-25 -14,-27 -48,-22 -35,6 -40,4 -54,-25 -19,-36 -41,-42 -30,-8 24,80 31,87 78,87 44,0 59,11 35,25 -6,4 -35,4 -64,0 -44,-5 -55,-11 -61,-28 -4,-12 -17,-35 -30,-50 -13,-16 -24,-35 -24,-43 0,-8 -12,-37 -26,-65 -30,-61 -23,-77 14,-32 17,20 43,36 69,43 29,7 44,17 49,33 11,38 23,47 50,37 13,-5 30,-7 38,-4 29,11 60,127 39,147 -3,4 -5,34 -4,67 3,69 -4,76 -67,61 l -42,-9 v 47 c 0,29 8,59 21,81 l 21,34 16,-29 c 16,-32 23,-40 66,-73 45,-35 54,-26 13,16 -20,20 -43,56 -51,80 l -15,42 56,55 c 61,60 91,75 104,54 18,-28 30,-91 34,-181 5,-98 10,-116 21,-73 11,43 -2,186 -21,233 -23,57 -43,66 -86,40 z"
           id="path6088" />
        <path
           d="m 1957,7822 c -49,-51 -24,-112 46,-112 31,0 77,39 77,65 0,20 -19,57 -34,67 -24,16 -63,7 -89,-20 z"
           id="path6094" />
        <path
           d="m 1937,7512 c -31,-32 -34,-58 -11,-90 23,-33 60,-28 101,13 35,35 38,59 11,93 -19,22 -72,14 -101,-16 z"
           id="path6096" />
        <path
           d="m 3310,5315 c 19,-33 68,-114 110,-180 76,-118 120,-204 120,-232 0,-8 4,-11 10,-8 6,3 7,-1 4,-10 -4,-8 0,-23 7,-33 13,-16 13,-16 -5,-2 -10,8 -50,60 -87,115 -105,152 -137,197 -150,209 -15,13 -12,9 106,-179 49,-77 103,-160 121,-185 18,-25 49,-82 69,-125 61,-133 64,-139 94,-180 15,-22 34,-39 40,-37 7,1 10,-2 6,-7 -6,-10 23,-45 123,-148 49,-51 69,-61 37,-19 -8,11 -15,28 -15,39 0,19 -166,339 -252,486 -115,195 -320,506 -361,546 -5,6 5,-17 23,-50 z"
           id="path6098" />
        <path
           d="m 3595,11707 c -131,-68 -206,-121 -470,-332 -125,-99 -228,-175 -240,-175 -12,0 -28,12 -39,31 -10,17 -21,28 -24,24 -9,-9 72,-117 95,-126 16,-6 33,0 67,23 l 46,30 35,-31 c 77,-67 77,-67 232,-7 76,30 174,67 218,82 77,28 81,31 104,79 14,28 41,94 60,149 l 36,99 52,21 c 29,11 53,25 53,30 0,6 -20,36 -45,67 -25,32 -45,60 -45,64 0,15 34,-21 72,-78 39,-57 40,-58 57,-38 16,18 18,18 28,3 11,-16 12,-16 12,-1 1,20 -77,139 -90,139 -6,0 -5,-10 2,-22 11,-23 11,-23 -15,1 -14,14 -26,20 -26,14 0,-6 7,-16 16,-24 8,-7 22,-26 30,-43 12,-26 7,-23 -29,18 -24,27 -49,46 -55,42 -6,-3 -13,-2 -17,4 -9,15 -11,14 -120,-43 z m 50,-294 c -45,-133 -52,-145 -101,-162 -21,-7 -115,-42 -207,-78 -107,-41 -177,-63 -191,-59 -12,3 -40,21 -61,41 l -40,35 24,20 c 27,23 51,26 70,8 20,-21 130,-15 178,10 49,25 89,85 99,150 6,39 11,45 58,69 99,51 201,92 204,83 2,-6 -13,-58 -33,-117 z"
           id="path6090" />
        <path
           d="m 2050,11654 c -11,-3 -15,-17 -14,-53 4,-120 16,-142 84,-156 88,-18 90,-19 199,-192 58,-90 110,-168 115,-172 6,-5 49,-14 96,-21 47,-7 100,-15 119,-17 29,-5 32,-3 28,13 -3,11 -9,35 -13,54 -6,31 -5,33 10,21 25,-21 32,-4 8,22 -26,28 -38,58 -47,125 -8,62 -22,70 -16,10 l 4,-43 -84,76 c -111,99 -220,187 -294,236 -65,43 -170,104 -176,102 -2,-1 -11,-3 -19,-5 z m 283,-297 c 48,-28 63,-43 89,-93 38,-72 61,-103 96,-126 29,-19 87,-24 97,-8 12,20 24,9 35,-31 6,-23 10,-42 8,-44 -2,-2 -30,3 -63,11 -33,7 -76,14 -96,14 -19,0 -42,6 -51,13 -24,19 -188,274 -188,293 0,9 17,2 73,-29 z"
           id="path6092" />
      </g>
      <ellipse
         style="fill:#fffffc;fill-opacity:0.997059;stroke:#000000;stroke-width:17.707;stroke-miterlimit:4;stroke-dasharray:none;stroke-opacity:1"
         id="path6116"
         cx="4727.7607"
         cy="-1616.4989"
         transform="scale(1,-1)"
         rx="290.86209"
         ry="297.72171" />
    </g>
    <circle
       style="fill:#fffffc;fill-opacity:0.997059;stroke:#000000;stroke-width:0.499999;stroke-miterlimit:4;stroke-dasharray:none;stroke-opacity:1"
       id="path6034"
       cx="113.66408"
       cy="164.03288"
       r="11.567835" />
    <circle
       style="fill:#fffffc;fill-opacity:0.997059;stroke:#000000;stroke-width:0.499999;stroke-miterlimit:4;stroke-dasharray:none;stroke-opacity:1"
       id="path6034-2"
       cx="143.49872"
       cy="165.99756"
       r="11.567835" />
    <text
       xml:space="preserve"
       style="font-size:7.05556px;line-height:1.25;font-family:Alegreya;-inkscape-font-specification:Alegreya;stroke-width:0.264583"
       x="103.11803"
       y="165.68729"
       id="text6058"><tspan
         sodipodi:role="line"
         id="tspan6056"
         x="103.11803"
         y="165.68729"
         style="font-size:5.64444px;stroke-width:0.264583">Function</tspan></text>
    <text
       xml:space="preserve"
       style="font-size:7.05556px;line-height:1.25;font-family:Alegreya;-inkscape-font-specification:Alegreya;stroke-width:0.264583"
       x="134.82854"
       y="167.02435"
       id="text6058-4"><tspan
         sodipodi:role="line"
         id="tspan6056-3"
         x="134.82854"
         y="167.02435"
         style="font-size:5.64444px;stroke-width:0.264583">Objects</tspan></text>
    <text
       xml:space="preserve"
       style="font-size:7.05556px;line-height:1.25;font-family:Alegreya;-inkscape-font-specification:Alegreya;stroke-width:0.264583"
       x="212.99579"
       y="148.17682"
       id="text6058-4-4"><tspan
         sodipodi:role="line"
         id="tspan6056-3-6"
         x="212.99579"
         y="148.17682"
         style="font-size:5.64444px;stroke-width:0.264583">Methods</tspan></text>
    <path
       style="fill:#fffffc;fill-opacity:0.997059;stroke:#000000;stroke-width:3;stroke-miterlimit:4;stroke-dasharray:none;stroke-opacity:1"
       d="m 180.27601,167.81036 c 0,0 23.86362,0 23.86362,0"
       id="path6170"
       inkscape:path-effect="#path-effect6172"
       inkscape:original-d="m 180.27601,167.81036 h 23.86362" />
    <path
       sodipodi:type="star"
       style="fill:#000001;fill-opacity:0.997059;stroke:#000000;stroke-width:3;stroke-miterlimit:4;stroke-dasharray:none;stroke-opacity:1"
       id="path6174"
       sodipodi:sides="3"
       sodipodi:cx="198.09712"
       sodipodi:cy="167.81036"
       sodipodi:r1="6.0425072"
       sodipodi:r2="3.0212536"
       sodipodi:arg1="0"
       sodipodi:arg2="1.0471976"
       inkscape:flatsided="false"
       inkscape:rounded="0"
       inkscape:randomized="0"
       d="m 204.13963,167.81036 -4.53188,2.61649 -4.53188,2.61648 v -5.23297 -5.23296 l 4.53188,2.61648 z"
       inkscape:transform-center-x="-1.5106249" />
  </g>
</svg>
